G04 DipTrace 3.0.0.2*
G04 gerber_files.gtl*
%MOIN*%
G04 #@! TF.FileFunction,Copper,L1,Top*
G04 #@! TF.Part,Single*
G04 #@! TA.AperFunction,Conductor*
%ADD14C,0.012992*%
%ADD15R,0.059055X0.051181*%
%ADD16R,0.051181X0.059055*%
%ADD17R,0.070866X0.015748*%
G04 #@! TA.AperFunction,ComponentPad*
%ADD18R,0.066929X0.066929*%
%ADD19C,0.066929*%
G04 #@! TA.AperFunction,ViaPad*
%ADD20C,0.04*%
%FSLAX26Y26*%
G04*
G70*
G90*
G75*
G01*
G04 Top*
%LPD*%
X598892Y543984D2*
D14*
Y643974D1*
Y543984D2*
X680323D1*
X780312Y643974D1*
X467656Y781491D2*
X473937D1*
X548898Y856451D1*
X607514D1*
X611391Y860328D1*
X467656Y781491D2*
Y768961D1*
X498903Y737714D1*
X742627Y543984D2*
Y562732D1*
X780123Y600228D1*
Y643785D1*
X780312Y643974D1*
X598892Y469181D2*
X780123D1*
X780312Y468992D1*
X598892Y469181D2*
X561207D1*
X536399Y493990D1*
Y668971D1*
X530150Y675220D1*
X473927D1*
X467656Y681491D1*
X673696Y643974D2*
Y687908D1*
X667635Y693969D1*
X548898D1*
X530150Y675220D1*
X548898Y693969D2*
X536399D1*
Y806457D1*
X561396Y831454D1*
X608108D1*
X611391Y834738D1*
X855115Y468992D2*
Y493990D1*
X811370Y537735D1*
Y568982D1*
X848866Y606478D1*
Y637724D1*
X855115Y643974D1*
X723879Y731465D2*
X748877D1*
X792622Y687719D1*
X848866D1*
X855115Y681470D1*
Y643974D1*
X530150Y887698D2*
X609612D1*
X611391Y885919D1*
X880113Y587730D2*
Y618976D1*
X855115Y643974D1*
X467656Y1181491D2*
X592570D1*
X636388Y1137672D1*
Y987688D1*
X611391Y962690D1*
X467656Y1081491D2*
X517588D1*
X536399Y1062680D1*
Y962690D1*
X561396Y937693D1*
X610798D1*
X611391Y937100D1*
Y911509D2*
X556333D1*
X486352Y981491D1*
X467656D1*
X839738Y962690D2*
Y1116045D1*
X905110Y1181417D1*
X967444D1*
X967752Y1181726D1*
X839738Y937100D2*
X879520D1*
X905110Y962690D1*
Y1068929D1*
X911360Y1075178D1*
X961205D1*
X967752Y1081726D1*
X839738Y911509D2*
X897535D1*
X967752Y981726D1*
X839738Y885919D2*
X963559D1*
X967752Y881726D1*
X839738Y860328D2*
X913732D1*
X936357Y837703D1*
Y813121D1*
X967752Y781726D1*
X839738Y834738D2*
X889328D1*
X917609Y806457D1*
Y762711D1*
X936357Y743963D1*
Y713121D1*
X967752Y681726D1*
X839738Y809147D2*
X877423D1*
X892612Y793958D1*
Y718966D1*
X911360Y700218D1*
Y638118D1*
X967752Y581726D1*
X805121Y725215D2*
X817619D1*
X836367Y743963D1*
Y780178D1*
X839745Y783556D1*
X873864Y537735D2*
X911743D1*
X967752Y481726D1*
X573895Y737714D2*
Y743963D1*
X561396Y756462D1*
Y800207D1*
X567646Y806457D1*
X608701D1*
X611391Y809147D1*
X467656Y481491D2*
X498903D1*
X530150Y450244D1*
X623890Y737714D2*
Y783556D1*
X611391D1*
D20*
X805121Y725215D3*
X873864Y537735D3*
X530150Y450244D3*
X623890Y737714D3*
X742627Y543984D3*
X723879Y731465D3*
X880113Y587730D3*
X498903Y737714D3*
X530150Y887698D3*
X573895Y737714D3*
D15*
X598892Y543984D3*
Y469181D3*
D16*
Y643974D3*
X673696D3*
X855115Y468992D3*
X780312D3*
X855115Y643974D3*
X780312D3*
D17*
X611391Y962690D3*
Y937100D3*
Y911509D3*
Y885919D3*
Y860328D3*
Y834738D3*
Y809147D3*
Y783556D3*
X839745D3*
X839738Y809147D3*
Y834738D3*
Y860328D3*
Y885919D3*
Y911509D3*
Y937100D3*
Y962690D3*
D18*
X467656Y481491D3*
D19*
Y581491D3*
Y681491D3*
Y781491D3*
Y881491D3*
Y981491D3*
Y1081491D3*
Y1181491D3*
D18*
X967752Y1181726D3*
D19*
Y1081726D3*
Y981726D3*
Y881726D3*
Y781726D3*
Y681726D3*
Y581726D3*
Y481726D3*
M02*
