G04 DipTrace 3.0.0.2*
G04 gerber_files.gbl*
%MOIN*%
G04 #@! TF.FileFunction,Copper,L2,Bot*
G04 #@! TF.Part,Single*
G04 #@! TA.AperFunction,Conductor*
%ADD14C,0.012992*%
G04 #@! TA.AperFunction,ComponentPad*
%ADD18R,0.066929X0.066929*%
%ADD19C,0.066929*%
G04 #@! TA.AperFunction,ViaPad*
%ADD20C,0.04*%
%FSLAX26Y26*%
G04*
G70*
G90*
G75*
G01*
G04 Bottom*
%LPD*%
X498903Y737714D2*
D14*
X505152D1*
X555147Y787709D1*
X642638D1*
X661386Y768961D1*
Y625226D1*
X742627Y543984D1*
X723879Y731465D2*
Y787709D1*
X623890Y887698D1*
X530150D1*
X467656Y881491D2*
Y893948D1*
X573895Y1000186D1*
X798871D1*
X855115Y943942D1*
Y612727D1*
X880113Y587730D1*
X805121Y725215D2*
Y606478D1*
X873864Y537735D1*
X467656Y581491D2*
Y612727D1*
X530150Y675220D1*
Y693969D1*
X573895Y737714D1*
X530150Y450244D2*
Y643974D1*
X623890Y737714D1*
D20*
X805121Y725215D3*
X873864Y537735D3*
X530150Y450244D3*
X623890Y737714D3*
X742627Y543984D3*
X723879Y731465D3*
X880113Y587730D3*
X498903Y737714D3*
X530150Y887698D3*
X573895Y737714D3*
D18*
X467656Y481491D3*
D19*
Y581491D3*
Y681491D3*
Y781491D3*
Y881491D3*
Y981491D3*
Y1081491D3*
Y1181491D3*
D18*
X967752Y1181726D3*
D19*
Y1081726D3*
Y981726D3*
Y881726D3*
Y781726D3*
Y681726D3*
Y581726D3*
Y481726D3*
M02*
